# xmcd
#
# Track frame offsets:
#	150
#	15007
#	29505
#	48762
#	60975
#	77987
#	93867
#	106260
#	120392
#	136750
#
# Disc length: 2019 seconds
#
# Revision: 2
# Processed by: cddbd v1.4b41PL1 Copyright (c) Steve Scherf et al.
# Submitted via: audiograbber 1.80
#
DISCID=6607e10a
DTITLE=Reba McEntire - The Last One To Know
DYEAR=1900
DGENRE=
TTITLE0=The Last One To Know
TTITLE1=The Girl Who Has Everything
TTITLE2=Just Across The Rio Grande
TTITLE3=I Don't Want To Mention Any Names
TTITLE4=Someone Else
TTITLE5=What You Gonna Do About Me
TTITLE6=I Don't Want To Be Alone
TTITLE7=The Stairs
TTITLE8=Love Will Find Its Way To You
TTITLE9=I've Still Got The Love We Made
EXTD=
EXTT0=
EXTT1=
EXTT2=
EXTT3=
EXTT4=
EXTT5=
EXTT6=
EXTT7=
EXTT8=
EXTT9=
PLAYORDER=
